<svg width="16" height="12" viewBox="0 0 16 12" fill="none" xmlns="http://www.w3.org/2000/svg">
<path d="M5.55003 11.575C5.4167 11.575 5.2917 11.5542 5.17503 11.5125C5.05836 11.4708 4.95003 11.4 4.85003 11.3L0.550031 6.99999C0.366697 6.81666 0.279197 6.57916 0.287531 6.28749C0.295864 5.99583 0.391697 5.75833 0.575031 5.57499C0.758364 5.39166 0.991697 5.29999 1.27503 5.29999C1.55836 5.29999 1.7917 5.39166 1.97503 5.57499L5.55003 9.14999L14.025 0.674994C14.2084 0.491661 14.4459 0.399994 14.7375 0.399994C15.0292 0.399994 15.2667 0.491661 15.45 0.674994C15.6334 0.858327 15.725 1.09583 15.725 1.38749C15.725 1.67916 15.6334 1.91666 15.45 2.09999L6.25003 11.3C6.15003 11.4 6.0417 11.4708 5.92503 11.5125C5.80836 11.5542 5.68336 11.575 5.55003 11.575Z" fill="#00512E"/>
</svg>
