<svg width="30" height="30" viewBox="0 0 30 30" fill="none" xmlns="http://www.w3.org/2000/svg">
<mask id="mask0_1_2155" style="mask-type:alpha" maskUnits="userSpaceOnUse" x="0" y="0" width="30" height="30">
<rect width="30" height="30" fill="#D9D9D9"/>
</mask>
<g mask="url(#mask0_1_2155)">
<path d="M26.3889 25.25C26 25.25 25.6713 25.1141 25.4028 24.8422C25.1343 24.5703 25 24.2375 25 23.8438C25 23.45 25.1343 23.1172 25.4028 22.8453C25.6713 22.5734 26 22.4375 26.3889 22.4375C26.7778 22.4375 27.1065 22.5734 27.375 22.8453C27.6435 23.1172 27.7778 23.45 27.7778 23.8438C27.7778 24.2375 27.6435 24.5703 27.375 24.8422C27.1065 25.1141 26.7778 25.25 26.3889 25.25ZM21.1111 27.5C20.8056 27.5 20.544 27.3898 20.3264 27.1695C20.1088 26.9492 20 26.6844 20 26.375V18.5C20 18.1906 20.1088 17.9258 20.3264 17.7055C20.544 17.4852 20.8056 17.375 21.1111 17.375H21.6667V16.8125C21.6667 16.6531 21.7199 16.5195 21.8264 16.4117C21.9329 16.3039 22.0648 16.25 22.2222 16.25C22.3796 16.25 22.5116 16.3039 22.6181 16.4117C22.7245 16.5195 22.7778 16.6531 22.7778 16.8125V17.375H27.2222V16.8125C27.2222 16.6531 27.2755 16.5195 27.3819 16.4117C27.4884 16.3039 27.6204 16.25 27.7778 16.25C27.9352 16.25 28.0671 16.3039 28.1736 16.4117C28.2801 16.5195 28.3333 16.6531 28.3333 16.8125V17.375H28.8889C29.1944 17.375 29.456 17.4852 29.6736 17.7055C29.8912 17.9258 30 18.1906 30 18.5V26.375C30 26.6844 29.8912 26.9492 29.6736 27.1695C29.456 27.3898 29.1944 27.5 28.8889 27.5H21.1111ZM21.1111 26.375H28.8889V20.75H21.1111V26.375Z" fill="#009659"/>
<path d="M5 15H25V10H5V15ZM5 25C4.3125 25 3.72396 24.7552 3.23438 24.2656C2.74479 23.776 2.5 23.1875 2.5 22.5V7.5C2.5 6.8125 2.74479 6.22396 3.23438 5.73438C3.72396 5.24479 4.3125 5 5 5H25C25.6875 5 26.276 5.24479 26.7656 5.73438C27.2552 6.22396 27.5 6.8125 27.5 7.5V13.75C27.5 14.1042 27.3802 14.401 27.1406 14.6406C26.901 14.8802 26.6042 15 26.25 15H23.75C22.0208 15 20.5469 15.6094 19.3281 16.8281C18.1094 18.0469 17.5 19.5208 17.5 21.25V23.75C17.5 24.1042 17.3802 24.401 17.1406 24.6406C16.901 24.8802 16.6042 25 16.25 25H5Z" fill="#194689"/>
</g>
</svg>
