<svg width="30" height="30" viewBox="0 0 30 30" fill="none" xmlns="http://www.w3.org/2000/svg">
<path d="M25 6.25H16.25V11.25H25V16.25H16.25V23.75H18.75V19.075L23.75 17.4625L27.5 18.6625V8.75C27.5 7.375 26.375 6.25 25 6.25Z" fill="#194689"/>
<path d="M11.25 23.75V16.25H5V11.25H11.25V6.25H5C3.625 6.25 2.5 7.375 2.5 8.75V21.25C2.5 22.625 3.625 23.75 5 23.75H11.25Z" fill="#194689"/>
<path d="M12.5 2.5H10C8.625 2.5 7.5 3.625 7.5 5H12.5V25H7.5C7.5 26.375 8.625 27.5 10 27.5H12.5C13.875 27.5 15 26.375 15 25V5C15 3.625 13.875 2.5 12.5 2.5Z" fill="#009659"/>
<path d="M20 20.1125V24.025C20 25.8 21.1375 26.3625 23.15 27.2125C23.35 27.3 23.55 27.3875 23.75 27.475C23.95 27.3875 24.15 27.3 24.35 27.2125C26.3625 26.3625 27.5 25.8 27.5 24.025V20.1125L23.75 18.9125L20 20.1125ZM26.175 22.3L23.0875 25.3875L21.325 23.625L22.2125 22.7375L23.1 23.625L25.3125 21.4125L26.175 22.3Z" fill="#009659"/>
</svg>
