<svg width="24" height="24" viewBox="0 0 24 24" fill="none" xmlns="http://www.w3.org/2000/svg">
<path d="M6.99996 17.8333C6.99996 18.75 7.74996 19.5 8.66663 19.5H15.3333C16.25 19.5 17 18.75 17 17.8333V9.5C17 8.58333 16.25 7.83333 15.3333 7.83333H8.66663C7.74996 7.83333 6.99996 8.58333 6.99996 9.5V17.8333ZM17 5.33333H14.9166L14.325 4.74167C14.175 4.59167 13.9583 4.5 13.7416 4.5H10.2583C10.0416 4.5 9.82496 4.59167 9.67496 4.74167L9.08329 5.33333H6.99996C6.54163 5.33333 6.16663 5.70833 6.16663 6.16667C6.16663 6.625 6.54163 7 6.99996 7H17C17.4583 7 17.8333 6.625 17.8333 6.16667C17.8333 5.70833 17.4583 5.33333 17 5.33333Z" fill="#1F1F1F"/>
</svg>
